<?xml version="1.0" encoding="UTF-8"?>
<!--Generator: Apple Native CoreSVG 175.5-->
<!DOCTYPE svg
PUBLIC "-//W3C//DTD SVG 1.1//EN"
       "http://www.w3.org/Graphics/SVG/1.1/DTD/svg11.dtd">
<svg version="1.1" xmlns="http://www.w3.org/2000/svg" xmlns:xlink="http://www.w3.org/1999/xlink" width="719.926" height="720.424">
 <g>
  <rect height="720.424" opacity="0" width="719.926" x="0" y="0"/>
  <path d="M543.929 139.914C563.816 139.867 579.963 155.936 580.011 175.824C580.059 195.712 563.989 211.859 544.102 211.907C524.214 211.955 508.067 195.885 508.019 175.997C507.971 156.109 524.04 139.962 543.929 139.914ZM359.524 177.946C460.041 177.704 541.737 259.009 541.979 359.524C542.22 460.039 460.918 541.736 360.402 541.979C259.884 542.221 178.188 460.917 177.946 360.4C177.704 259.885 259.008 178.188 359.524 177.946ZM360.247 478.128C425.503 477.971 478.285 424.932 478.128 359.678C477.971 294.423 424.933 241.64 359.678 241.797C294.422 241.955 241.641 294.992 241.797 360.247C241.955 425.503 294.992 478.285 360.247 478.128ZM719.926 359.352L719.926 363.261C719.926 694.038 694.039 719.926 363.261 719.926L356.665 719.926C25.8864 719.926 0 694.038 0 363.261L0 356.664C0 25.8868 25.8864 0 356.665 0L360.573 0C693.844 1.85881e-07 719.926 26.082 719.926 359.352ZM656.074 424.824L656.074 295.102C656.074 80.6355 639.291 63.8508 424.824 63.8508L295.102 63.8508C80.6351 63.8508 63.8503 80.6355 63.8503 295.102L63.8503 424.824C63.8503 639.291 80.6351 656.075 295.102 656.075L424.824 656.075C639.291 656.075 656.074 639.291 656.074 424.824Z" fill="#ffffff" fill-opacity="0.85"/>
 </g>
</svg>
